<?xml version="1.0" encoding="utf-8"?>
<!-- Generator: Adobe Illustrator 27.4.0, SVG Export Plug-In . SVG Version: 6.00 Build 0)  -->
<svg version="1.1" id="Layer_2_00000175295895235018783060000000261874857158245525_"
	 xmlns="http://www.w3.org/2000/svg" xmlns:xlink="http://www.w3.org/1999/xlink" x="0px" y="0px" viewBox="0 0 290.7 59.7"
	 style="enable-background:new 0 0 290.7 59.7;" xml:space="preserve">
<style type="text/css">
	.st0{fill:#94A3B8;}
	.st1{fill:#F58431;}
	.st2{clip-path:url(#SVGID_00000067235216289279413790000015861471869588395449_);}
	.st3{fill:#4299E1;stroke:#4299E1;stroke-width:0.25;stroke-miterlimit:10;}
	.st4{fill:#4299E1;}
	.st5{fill:url(#SVGID_00000147188591160743731860000005114128721123004814_);}
</style>
<g id="Layer_2-2">
	<g>
		<g>
			<polygon class="st0" points="134.1,47.2 113.3,16.9 113.2,16.8 110.4,16.8 110.4,50.5 112.8,50.5 112.8,19.9 133.8,50.4 
				133.8,50.5 136.5,50.5 136.5,16.8 134.1,16.8 			"/>
			<path class="st0" d="M161.2,48.6c-1.3,0-1.4-1.1-1.4-2.7V32c0-5.3-4.6-6.4-8.6-6.4c-5.9,0-9.1,2.8-9.3,8.1v0.2h2.1v-0.2
				c0.2-4,2.9-6.3,7.2-6.3c5.4,0,6.5,3.6,6.5,4.6c0,3.8-0.3,4.3-8.1,4.8c-3.9,0.3-9,1.4-9,7.2c0,4.5,2.8,6.9,8.2,6.9
				c4.8,0,7.7-2.6,8.9-5v0.7c0,2.2,0.6,3.7,3.4,3.7c0.4,0,0.9-0.1,1.3-0.2h0.3v-1.8h-0.2C161.9,48.6,161.5,48.6,161.2,48.6
				L161.2,48.6z M157.7,37v4.1c0,0.1-0.2,8-8.8,8c-3.8,0-6.1-1.9-6.1-5.1s2-4.9,6.4-5.4c0.9-0.1,1.8-0.2,2.7-0.3
				C154.2,38.2,156.5,38,157.7,37L157.7,37z"/>
			<polygon class="st0" points="173.3,47.9 164.7,26.1 162.3,26.1 172,50.4 172.1,50.5 174.5,50.5 183.6,26.4 183.7,26.1 
				181.4,26.1 			"/>
			<rect x="186.2" y="16.8" class="st0" width="2.1" height="5.1"/>
			<rect x="186.2" y="26.1" class="st0" width="2.1" height="24.3"/>
			<path class="st0" d="M211.7,30.7c-1.4-3.1-4.7-5.1-8.6-5.1c-7.3,0-10.5,6-10.5,12c0,7.5,3.9,12,10.5,12c3.9,0,6.9-1.8,8.6-5.1v5
				c0,3.1-1.1,8.3-8.4,8.3c-4.4,0-7.2-2.1-7.5-5.8v-0.1h-2.1v0.2c0.3,5,3.6,7.6,9.5,7.6c0.2,0,0.4,0,0.6,0c3.1,0,5.5-0.8,7.1-2.5
				c1.9-1.8,2.8-4.5,2.8-8.1v-23h-2.1L211.7,30.7L211.7,30.7z M211.7,37.6c0,5.1-2.6,10.2-8.6,10.2c-5.1,0-8.4-4-8.4-10.2
				c0-4.9,2.6-10.1,8.4-10.1S211.7,32.5,211.7,37.6L211.7,37.6z"/>
			<path class="st0" d="M238.2,48.6c-1.3,0-1.4-1.1-1.4-2.7V32c0-5.3-4.6-6.4-8.6-6.4c-5.9,0-9.1,2.8-9.3,8.1v0.2h2.1v-0.2
				c0.2-4,2.9-6.3,7.2-6.3c5.4,0,6.5,3.6,6.5,4.6c0,3.8-0.3,4.3-8.1,4.8c-3.9,0.3-9,1.4-9,7.2c0,4.5,2.8,6.9,8.2,6.9
				c4.8,0,7.7-2.6,8.9-5v0.7c0,2.2,0.6,3.7,3.4,3.7c0.4,0,0.9-0.1,1.3-0.2h0.3v-1.8h-0.2C238.9,48.6,238.5,48.6,238.2,48.6
				L238.2,48.6z M234.6,37v4.1c0,0.1-0.2,8-8.8,8c-3.8,0-6.1-1.9-6.1-5.1s2-4.9,6.4-5.4c0.9-0.1,1.8-0.2,2.7-0.3
				C231.2,38.2,233.5,38,234.6,37L234.6,37z"/>
			<path class="st0" d="M246,18.7h-2.1v7.5h-4.4v1.9h4.4v16.5c-0.1,2.1,0.4,3.6,1.4,4.5c1.1,1.1,2.9,1.4,4.5,1.4c0.4,0,0.9,0,1.3,0
				h0.1v-1.9H251c-2,0.1-3.3-0.1-4.1-0.8c-0.6-0.6-0.9-1.6-0.9-3.2V28h5.2v-1.9H246V18.7L246,18.7z"/>
			<path class="st0" d="M264.2,25.6c-6.6,0-11.2,5.2-11.2,12.7S257.6,51,264.2,51s11.2-5.2,11.2-12.7S270.8,25.6,264.2,25.6z
				 M264.2,49.2c-6.2,0-9.1-5.6-9.1-10.9s2.8-10.9,9.1-10.9s9.1,5.6,9.1,10.9S270.4,49.2,264.2,49.2z"/>
			<path class="st0" d="M290.5,26c-4-0.2-8,2-9.2,5.1v-5h-2.1v24.3h2.1V37.2c0.2-3.7,1-5.1,2.7-6.8c2.6-2.5,5.6-2.4,6.5-2.3h0.2V26
				H290.5z"/>
		</g>
		<g>
			<g>
				<g>
					<polygon class="st1" points="96.2,5.4 102,7.5 109.7,0 					"/>
					<polygon class="st1" points="104.1,13.6 109.7,0 109.7,0 102,7.5 102.2,7.5 					"/>
				</g>
				<g>
					<g>
						<g>
							<defs>
								<ellipse id="SVGID_1_" cx="80.5" cy="29.2" rx="18.2" ry="18.1"/>
							</defs>
							<clipPath id="SVGID_00000003822541148398759070000002967744265530349234_">
								<use xlink:href="#SVGID_1_"  style="overflow:visible;"/>
							</clipPath>
							<g style="clip-path:url(#SVGID_00000003822541148398759070000002967744265530349234_);">
								<g>
									<path class="st3" d="M76.2,15.5c0.2-0.9,0.4-1.8,0.6-2.6c-0.3,0.1-0.6,0.3-0.9,0.4c0-0.1-0.1-0.2-0.1-0.3
										c0.4-0.2,0.8-0.4,1.2-0.6c0.2,0,0.3-0.1,0.4-0.1c-0.2,0.9-0.4,1.9-0.7,3C76.6,15.5,76.4,15.5,76.2,15.5"/>
									<path class="st3" d="M75.3,21.9c0.1-1.2,0.2-2.5,0.4-3.6c-0.3,0.2-0.6,0.3-0.9,0.5c-0.1-0.1-0.1-0.3-0.2-0.4
										c0.4-0.2,0.9-0.5,1.3-0.7c0.2,0,0.3,0,0.5-0.1c-0.2,1.3-0.3,2.8-0.5,4.2C75.8,21.9,75.5,21.9,75.3,21.9"/>
									<path class="st3" d="M69.9,22.6c0.2-1.1,0.3-2.3,0.6-3.3c-0.2,0.2-0.5,0.3-0.7,0.5c0-0.1-0.1-0.2-0.1-0.4
										c0.3-0.2,0.7-0.5,1-0.7c0.1,0,0.2-0.1,0.4-0.1c-0.3,1.2-0.5,2.5-0.7,3.9C70.2,22.5,70.1,22.5,69.9,22.6"/>
									<path class="st3" d="M88.8,15c-0.1-0.9-0.2-1.8-0.3-2.6c-0.3,0.1-0.6,0.1-0.9,0.2c-0.1-0.1-0.2-0.2-0.3-0.3
										c0.4-0.1,0.8-0.2,1.3-0.3c0.2,0,0.3,0,0.5,0c0.1,0.9,0.2,1.9,0.4,3C89.3,15,89.1,15,88.8,15"/>
									<path class="st3" d="M67.5,18.1c0.3-0.8,0.6-1.5,1-2.3c-0.2,0.2-0.4,0.3-0.5,0.5c0-0.1,0-0.1,0-0.2
										c0.2-0.2,0.5-0.5,0.8-0.7c0.1,0,0.2-0.1,0.2-0.1c-0.4,0.8-0.8,1.7-1.1,2.6C67.7,18,67.6,18.1,67.5,18.1"/>
									<path class="st3" d="M63.8,33.8c-0.1-0.9-0.2-1.7-0.2-2.6c-0.1,0.1-0.1,0.2-0.2,0.2c0-0.1,0-0.2-0.1-0.4
										c0.1-0.1,0.2-0.2,0.2-0.4h0.1C63.6,31.6,63.7,32.7,63.8,33.8C63.9,33.8,63.9,33.8,63.8,33.8"/>
									<path class="st3" d="M66.5,17.2c0.3-0.3,0.4-0.1,0,0.6c-0.4,0.8-0.9,1.6-1.2,1.9C65,20,65,19.7,65.4,19
										C65.7,18.2,66.2,17.5,66.5,17.2 M65.5,19.3c0.2-0.2,0.6-0.8,0.9-1.4c0.2-0.5,0.2-0.7,0-0.5s-0.6,0.8-0.8,1.3
										C65.3,19.3,65.3,19.5,65.5,19.3"/>
									<path class="st3" d="M63.8,25.7c0.3-0.1,0.4,0.5,0.4,1.5c-0.1,1-0.3,1.7-0.6,1.7c-0.2,0-0.4-0.6-0.3-1.5
										C63.3,26.5,63.6,25.8,63.8,25.7 M63.6,28.5c0.2,0,0.4-0.6,0.4-1.3c0.1-0.7,0-1.2-0.2-1.1s-0.4,0.6-0.4,1.3
										S63.4,28.5,63.6,28.5"/>
									<path class="st3" d="M82.6,11.9c1.2-0.1,2.1,0.5,2.1,1.4c0,1-1.1,1.7-2.3,1.7c-1.2,0-2.2-0.6-2.1-1.5
										C80.4,12.6,81.4,11.9,82.6,11.9 M82.4,14.5c0.9,0,1.6-0.6,1.6-1.3s-0.6-1.1-1.4-1.1s-1.5,0.5-1.6,1.2
										C80.9,14.1,81.5,14.6,82.4,14.5"/>
									<path class="st3" d="M82.2,17.1c1.3,0,2.4,0.8,2.4,2.1c0,1.4-1.2,2.4-2.6,2.4c-1.3,0-2.4-0.9-2.3-2.2
										C79.8,18,80.9,17.1,82.2,17.1 M82.1,21c1,0,1.8-0.8,1.8-1.8s-0.7-1.6-1.7-1.6c-0.9,0-1.7,0.7-1.7,1.7
										C80.4,20.3,81.1,21,82.1,21"/>
									<path class="st3" d="M89,17.1c1.3,0.1,2.4,1,2.5,2.3c0.1,1.4-0.9,2.3-2.3,2.2c-1.3,0-2.5-1-2.6-2.4
										C86.7,17.9,87.7,17.1,89,17.1 M89.2,21c1,0,1.7-0.7,1.6-1.7S90,17.6,89,17.6c-0.9,0-1.6,0.6-1.6,1.6
										C87.5,20.2,88.2,21,89.2,21"/>
									<path class="st3" d="M72.2,13.8c0.8-0.3,1.3,0,1.1,0.9c-0.3,0.9-1.2,1.8-2.1,2c-0.8,0.2-1.2-0.1-0.9-1
										C70.6,14.9,71.4,14.1,72.2,13.8 M71.3,16.4c0.6-0.2,1.2-0.8,1.5-1.5c0.2-0.6-0.1-0.9-0.7-0.7s-1.2,0.8-1.4,1.4
										C70.4,16.2,70.7,16.5,71.3,16.4"/>
									<path class="st3" d="M75,28.7c0-1.4,0.1-2.8,0.1-4.2c-0.3,0.2-0.7,0.3-1,0.5c-0.1-0.2-0.1-0.4-0.2-0.5
										c0.4-0.2,0.9-0.5,1.4-0.7c0.2,0,0.3,0,0.5,0c-0.1,1.6-0.2,3.3-0.2,4.9C75.5,28.7,75.2,28.7,75,28.7"/>
									<path class="st3" d="M82,28.7c0-1.5,0-2.9,0-4.4c-0.4,0.2-0.8,0.3-1.1,0.5c-0.1-0.2-0.2-0.4-0.3-0.6
										c0.5-0.2,1.1-0.5,1.6-0.7c0.2,0,0.4,0,0.6,0c0,1.7,0,3.4,0,5.1C82.5,28.7,82.2,28.7,82,28.7"/>
									<path class="st3" d="M65.7,28.9c0-1.1,0.1-2.2,0.2-3.3c-0.2,0.1-0.3,0.3-0.5,0.4c0-0.1,0-0.3-0.1-0.4
										c0.2-0.2,0.4-0.4,0.7-0.6c0.1,0,0.2,0,0.2,0c-0.2,1.3-0.2,2.6-0.3,4C65.9,28.9,65.8,28.9,65.7,28.9"/>
									<path class="st3" d="M69.7,24.3c0.9-0.1,1.7,0.7,1.6,2.1c-0.1,1.5-0.9,2.4-1.8,2.5c-0.9,0-1.5-0.9-1.4-2.2
										C68.1,25.4,68.9,24.4,69.7,24.3 M69.5,28.3c0.7,0,1.2-0.8,1.3-1.8c0.1-1-0.4-1.7-1.1-1.6c-0.6,0.1-1.1,0.8-1.2,1.8
										C68.4,27.6,68.8,28.3,69.5,28.3"/>
									<path class="st3" d="M65.7,30.7c0.6,0,1.1,0.9,1.2,2.2c0.1,1.3-0.3,2-0.9,1.9c-0.5-0.1-1-1-1.1-2.2
										C64.8,31.4,65.2,30.7,65.7,30.7 M66,34.3c0.4,0.1,0.7-0.5,0.6-1.4c-0.1-0.9-0.4-1.6-0.8-1.6s-0.6,0.6-0.6,1.4
										C65.2,33.5,65.6,34.2,66,34.3"/>
									<path class="st3" d="M82,31c1.4,0,2.6,1.1,2.6,2.7s-1.2,2.6-2.6,2.6s-2.6-1.1-2.6-2.7C79.4,32.1,80.6,31,82,31 M82,35.7
										c1,0,1.8-0.8,1.8-2s-0.8-2-1.8-2s-1.8,0.8-1.7,2C80.3,34.8,81,35.7,82,35.7"/>
									<path class="st3" d="M89.3,23.5c1.4,0,2.5,1.1,2.6,2.6c0,1.6-1.1,2.6-2.5,2.6s-2.6-1.1-2.6-2.7
										C86.8,24.5,87.9,23.5,89.3,23.5 M89.4,28.1c1,0,1.8-0.8,1.7-2c0-1.1-0.8-2-1.8-2s-1.7,0.8-1.7,1.9
										C87.6,27.2,88.4,28.1,89.4,28.1"/>
									<path class="st3" d="M67,19.9c0.6-0.3,0.9,0.2,0.7,1.4c-0.2,1.1-0.9,2.1-1.5,2.2c-0.5,0.2-0.8-0.4-0.6-1.5
										C65.8,21,66.4,20.1,67,19.9 M66.3,23c0.4-0.1,0.9-0.8,1-1.6c0.2-0.8,0-1.2-0.4-1s-0.8,0.8-1,1.6
										C65.7,22.7,65.9,23.1,66.3,23"/>
									<path class="st3" d="M76.6,45.8c-0.2-0.8-0.4-1.5-0.5-2.4c-0.2,0-0.5,0.1-0.7,0.2c-0.1-0.1-0.2-0.3-0.3-0.4
										c0.3-0.1,0.7-0.2,1-0.2c0.2,0,0.3,0,0.4,0.1c0.2,1,0.4,2,0.6,2.9C77,45.8,76.8,45.8,76.6,45.8"/>
									<path class="st3" d="M88.6,46.4c0.1-0.8,0.2-1.6,0.2-2.5c-0.3,0.1-0.6,0.2-0.9,0.3c-0.1-0.1-0.1-0.2-0.2-0.4
										c0.4-0.2,0.9-0.3,1.3-0.5c0.2,0,0.3,0,0.5,0c-0.1,1.1-0.2,2-0.3,3C89,46.3,88.8,46.3,88.6,46.4"/>
									<path class="st3" d="M82.2,42.4c-0.1-1.2-0.1-2.4-0.1-3.6c-0.4,0.1-0.7,0.2-1.1,0.4c-0.1-0.2-0.2-0.3-0.3-0.5
										c0.5-0.2,1-0.4,1.5-0.5c0.2,0,0.4,0,0.6,0c0,1.5,0.1,3,0.1,4.3C82.7,42.5,82.5,42.5,82.2,42.4"/>
									<path class="st3" d="M68.3,42.9c-0.3-0.7-0.6-1.4-0.8-2.1c-0.1,0-0.2,0-0.3,0c-0.1-0.1-0.1-0.2-0.2-0.3
										c0.1,0,0.3,0,0.4-0.1c0.1,0,0.2,0.1,0.2,0.1c0.3,0.9,0.6,1.8,1,2.5C68.4,43.1,68.3,43,68.3,42.9"/>
									<path class="st3" d="M89.3,36.6c0-1.4,0.1-2.8,0.1-4.3c-0.4,0.2-0.8,0.3-1.1,0.5c-0.1-0.2-0.2-0.4-0.3-0.6
										c0.5-0.2,1.1-0.5,1.6-0.7c0.2,0,0.4,0,0.6,0c0,1.7-0.1,3.4-0.1,5C89.8,36.6,89.5,36.6,89.3,36.6"/>
									<path class="st3" d="M69.8,35.7c-0.1-1.2-0.2-2.5-0.3-3.7c-0.2,0.1-0.5,0.2-0.7,0.4c-0.1-0.2-0.1-0.3-0.2-0.5
										c0.3-0.2,0.6-0.3,1-0.5c0.1,0,0.3,0,0.4,0c0.1,1.5,0.2,3,0.3,4.5C70.1,35.8,70,35.7,69.8,35.7"/>
									<path class="st3" d="M64.8,38.1c-0.2-0.7-0.4-1.5-0.6-2.3c-0.1,0-0.1,0.1-0.1,0.1c0-0.1-0.1-0.2-0.1-0.3
										c0.1-0.1,0.1-0.1,0.2-0.2c0,0,0.1,0,0.1,0.1c0.2,1,0.4,1.9,0.7,2.8C64.9,38.2,64.8,38.2,64.8,38.1"/>
									<path class="st3" d="M64.1,24.1c0.2-0.8,0.3-1.6,0.6-2.4c-0.1,0.1-0.2,0.3-0.3,0.4c0-0.1,0-0.2,0-0.3
										c0.1-0.2,0.2-0.4,0.4-0.6l0.1-0.1c-0.3,0.9-0.5,1.8-0.7,2.8C64.2,24.1,64.1,24.1,64.1,24.1"/>
									<path class="st3" d="M65,38.9c0.3,0.3,0.8,1.1,1.2,1.9c0.3,0.8,0.3,1-0.1,0.7c-0.3-0.3-0.8-1-1.1-1.8
										C64.7,38.9,64.7,38.6,65,38.9 M66,41.2c0.2,0.2,0.2,0,0-0.6s-0.6-1.2-0.8-1.4c-0.2-0.2-0.2,0.1,0,0.6
										C65.4,40.4,65.8,40.9,66,41.2"/>
									<path class="st3" d="M82.3,43.4c1.2,0,2.1,0.7,2.1,1.7c0,0.9-0.9,1.4-1.9,1.4c-1.1,0-2-0.7-2.1-1.6
										C80.3,44,81.1,43.4,82.3,43.4 M82.4,46.1c0.8,0,1.4-0.4,1.3-1c0-0.7-0.7-1.2-1.5-1.2s-1.4,0.4-1.3,1.1
										C81,45.6,81.7,46.1,82.4,46.1"/>
									<path class="st3" d="M89.2,37.8c1.3,0,2.4,0.8,2.3,2.2c-0.1,1.3-1.2,2.2-2.5,2.3s-2.3-0.7-2.3-2.1
										C86.7,38.8,87.9,37.8,89.2,37.8 M89.1,41.8c0.9,0,1.7-0.8,1.8-1.7c0.1-1-0.6-1.7-1.6-1.6c-1,0-1.7,0.8-1.8,1.8
										C87.4,41.2,88.1,41.8,89.1,41.8"/>
									<path class="st3" d="M95,19.6c-0.1-0.6-0.1-1.1-0.2-1.7c-0.2,0-0.4,0.1-0.6,0.1c-0.1-0.1-0.1-0.1-0.2-0.2
										c0.3-0.1,0.5-0.1,0.8-0.2c0.1,0,0.2,0,0.3,0c0.1,0.6,0.2,1.2,0.2,1.9C95.3,19.6,95.1,19.6,95,19.6"/>
									<path class="st3" d="M95.7,20.9c0.8,0,1.5,0.6,1.6,1.5s-0.6,1.4-1.4,1.4s-1.6-0.6-1.6-1.5C94.2,21.4,94.9,20.9,95.7,20.9
										 M95.8,23.4c0.6,0,1.1-0.4,1-1.1c0-0.6-0.5-1.1-1.1-1.1s-1,0.4-1,1C94.7,22.9,95.2,23.4,95.8,23.4"/>
									<path class="st3" d="M96.3,25.6c0.9,0,1.6,0.7,1.6,1.7S97.2,29,96.3,29s-1.7-0.7-1.7-1.7C94.7,26.3,95.4,25.6,96.3,25.6
										 M96.4,28.6c0.7,0,1.1-0.5,1.1-1.3c0-0.7-0.5-1.2-1.1-1.3s-1.1,0.5-1.1,1.2C95.2,28,95.7,28.6,96.4,28.6"/>
									<path class="st3" d="M95.2,40.7c0.1-0.5,0.1-1,0.2-1.6c-0.2,0.1-0.4,0.2-0.6,0.2c0-0.1-0.1-0.2-0.1-0.2
										c0.3-0.1,0.6-0.2,0.8-0.3c0.1,0,0.2,0,0.3,0c-0.1,0.7-0.1,1.3-0.2,1.9C95.4,40.7,95.3,40.7,95.2,40.7"/>
									<path class="st3" d="M95.9,34.7c0-0.9,0.1-1.8,0.1-2.7c-0.2,0.1-0.5,0.2-0.7,0.3c-0.1-0.1-0.1-0.2-0.2-0.4
										c0.3-0.2,0.7-0.3,1-0.4c0.1,0,0.3,0,0.4,0c0,1.1,0,2.2-0.1,3.2C96.3,34.7,96.1,34.7,95.9,34.7"/>
									<path class="st3" d="M95.8,35.4c0.9,0,1.5,0.5,1.4,1.4c-0.1,0.8-0.8,1.4-1.6,1.5c-0.8,0-1.5-0.5-1.5-1.3
										C94.2,36,94.9,35.4,95.8,35.4 M95.6,37.9c0.6,0,1.1-0.5,1.1-1.1c0.1-0.6-0.4-1.1-1-1c-0.6,0-1.1,0.5-1.1,1.1
										S95,37.9,95.6,37.9"/>
									<path class="st3" d="M75,31c1.3,0,2.3,1.1,2.4,2.6s-0.9,2.5-2.2,2.4c-1.2-0.1-2.2-1.1-2.3-2.6C72.9,31.9,73.8,31,75,31
										 M75.2,35.4c0.9,0.1,1.5-0.7,1.5-1.8s-0.7-1.9-1.7-2c-0.9,0-1.5,0.7-1.4,1.8C73.6,34.5,74.3,35.3,75.2,35.4"/>
									<path class="st3" d="M70.9,41.7c0.8,0.2,1.6,1,1.9,1.9c0.2,0.8-0.2,1.2-1,0.9c-0.7-0.2-1.5-1-1.8-1.8
										C69.8,41.9,70.2,41.5,70.9,41.7 M71.7,44.2c0.6,0.2,0.8-0.1,0.6-0.7c-0.2-0.6-0.7-1.2-1.3-1.4c-0.5-0.2-0.8,0.2-0.6,0.8
										C70.6,43.5,71.2,44.1,71.7,44.2"/>
									<path class="st3" d="M70,37c0.9,0.2,1.8,1.2,2,2.4s-0.4,1.8-1.3,1.6c-0.8-0.2-1.7-1.2-1.9-2.3C68.6,37.5,69.1,36.8,70,37
										 M70.6,40.5c0.6,0.2,1-0.3,0.8-1.2s-0.8-1.6-1.4-1.8c-0.6-0.1-1,0.4-0.8,1.3C69.4,39.6,70,40.3,70.6,40.5"/>
									<path class="st3" d="M75.9,41.9c-0.2-1.1-0.3-2.3-0.4-3.5c-0.3,0.1-0.6,0.2-0.9,0.3c-0.1-0.2-0.2-0.3-0.3-0.5
										c0.4-0.1,0.8-0.3,1.2-0.4c0.2,0,0.3,0,0.5,0c0.1,1.5,0.3,2.9,0.5,4.2C76.3,41.9,76.1,41.9,75.9,41.9"/>
									<path class="st3" d="M66.2,36.1c0.6,0.2,1.2,1.1,1.5,2.2c0.2,1.1-0.1,1.6-0.7,1.3c-0.5-0.2-1.1-1.1-1.4-2.1
										C65.4,36.5,65.7,35.9,66.2,36.1 M66.9,39.2c0.4,0.2,0.6-0.2,0.4-1s-0.6-1.5-1-1.6s-0.6,0.3-0.4,1.1
										C66.1,38.4,66.5,39.1,66.9,39.2"/>
								</g>
							</g>
						</g>
					</g>
				</g>
				<path class="st4" d="M14.4,50.5c-4.7,0-8.5-1.4-11-4C1,44-0.2,40.4,0,36v-0.4h3.2v0.5C3.1,39.5,4,42.4,6,44.5
					c2,2,4.9,3.1,8.4,3.1c5.5,0,11-3.2,11-9.4c0-8-7.9-8.8-11.2-8.8c-0.6,0-1.1,0-1.7,0.1H12v-3h0.5c0.3,0,0.7,0,1,0
					c4.1,0,11.1-1,11.1-8c0-5.1-5.1-7.7-10.1-7.7c-6.2,0-9.9,4-10.2,11v0.5H1v-0.5C1.1,13.5,6.3,8,14.4,8c6.1,0,13.3,2.8,13.3,10.6
					c0,4.3-2.5,7.9-6.4,9.2c4.5,1.3,7.3,5.3,7.3,10.4C28.6,45.7,23,50.5,14.4,50.5L14.4,50.5z"/>
				<path class="st4" d="M44.6,50.5c-9.7,0-14.8-6.7-14.8-19.3C29.8,20.6,32.4,8,45,8c7.1,0,12,4.2,12.8,11l0.1,0.5h-3.2l-0.1-0.4
					c-0.8-5-4.6-8.3-9.6-8.3c-9.3,0-11.7,9.7-12,18.3c2.3-4.2,6.7-6.9,11.6-6.9c8.1,0,13.9,6,13.9,14.2S52.5,50.5,44.6,50.5
					L44.6,50.5z M44.6,25.2c-6.2,0-10.9,4.9-10.9,11.3s4.8,11.1,10.9,11.1s10.7-4.9,10.7-11.1S50.6,25.2,44.6,25.2z"/>
			</g>
			<g>
				
					<linearGradient id="SVGID_00000093170725665159172550000015480899077865386425_" gradientUnits="userSpaceOnUse" x1="722.5842" y1="-121.7865" x2="763.6465" y2="-114.5415" gradientTransform="matrix(0.7609 0.6489 0.6489 -0.7609 -404.0892 -549.7143)">
					<stop  offset="0.29" style="stop-color:#4299E1"/>
					<stop  offset="0.36" style="stop-color:#4299E1;stop-opacity:0.88"/>
					<stop  offset="0.53" style="stop-color:#4299E1;stop-opacity:0.57"/>
					<stop  offset="0.69" style="stop-color:#4299E1;stop-opacity:0.32"/>
					<stop  offset="0.83" style="stop-color:#4299E1;stop-opacity:0.15"/>
					<stop  offset="0.93" style="stop-color:#4299E1;stop-opacity:4.000000e-02"/>
					<stop  offset="1" style="stop-color:#4299E1;stop-opacity:0"/>
				</linearGradient>
				<path style="fill:url(#SVGID_00000093170725665159172550000015480899077865386425_);" d="M95.4,43.4c-0.3,0-0.7-0.1-0.9-0.3
					c-0.6-0.5-0.7-1.4-0.2-2c6.5-7.6,5.6-19.1-2-25.6c-3.7-3.1-8.4-4.7-13.2-4.3c-4.8,0.4-9.2,2.6-12.4,6.3c-0.5,0.6-1.4,0.7-2,0.2
					s-0.7-1.4-0.2-2c3.6-4.3,8.7-6.9,14.3-7.3c5.6-0.4,11,1.3,15.3,5c8.8,7.5,9.9,20.8,2.3,29.6C96.2,43.2,95.8,43.4,95.4,43.4z"/>
				<path class="st4" d="M80.5,50.2c-4.8,0-9.7-1.7-13.6-5C58,37.7,57,24.4,64.5,15.6c0.5-0.6,1.4-0.7,2-0.2s0.7,1.4,0.2,2
					c-6.5,7.6-5.6,19.1,2,25.6s19.1,5.6,25.6-2c0.5-0.6,1.4-0.7,2-0.2s0.7,1.4,0.2,2C92.3,47.7,86.4,50.2,80.5,50.2L80.5,50.2z"/>
			</g>
		</g>
	</g>
</g>
</svg>
